<?xml version="1.0" encoding="iso-8859-1"?>
<!-- Generator: Adobe Illustrator 18.1.1, SVG Export Plug-In . SVG Version: 6.00 Build 0)  -->
<svg version="1.1" id="Capa_1" xmlns="http://www.w3.org/2000/svg" xmlns:xlink="http://www.w3.org/1999/xlink" x="0px" y="0px"
	 viewBox="0 0 17.095 17.095" style="enable-background:new 0 0 17.095 17.095;" xml:space="preserve">
<g>
	<g>
		<path style="fill:#030104;" d="M8.547,0C3.828,0,0.001,3.828,0.001,8.548c0,4.721,3.827,8.547,8.546,8.547
			c4.721,0,8.548-3.826,8.548-8.547C17.094,3.828,13.267,0,8.547,0z M8.91,15.677v-1.274c0-0.201-0.161-0.363-0.363-0.363
			c-0.2,0-0.362,0.162-0.362,0.363v1.274c-3.656-0.185-6.582-3.109-6.766-6.767h1.217c0.201,0,0.363-0.162,0.363-0.362
			c0-0.2-0.163-0.363-0.363-0.363H1.419c0.184-3.658,3.111-6.584,6.77-6.767c0,0.006-0.003,0.011-0.003,0.017v1.329
			c0,0.201,0.162,0.363,0.362,0.363c0.202,0,0.363-0.162,0.363-0.363V1.435c0-0.006-0.002-0.011-0.002-0.017
			c3.656,0.183,6.584,3.109,6.768,6.767h-1.228c-0.2,0-0.362,0.163-0.362,0.363c0,0.201,0.162,0.362,0.362,0.362h1.227
			C15.492,12.568,12.567,15.492,8.91,15.677z"/>
		<path style="fill:#030104;" d="M12.695,6.643L8.96,8.252C8.767,8.117,8.516,8.071,8.282,8.171
			C8.206,8.203,8.144,8.253,8.087,8.307l-3.7-1.472c-0.186-0.074-0.396,0.018-0.47,0.204C3.842,7.225,3.933,7.436,4.12,7.51
			l3.777,1.502c0.008,0.029,0.005,0.059,0.017,0.086c0.155,0.357,0.57,0.522,0.927,0.368c0.232-0.101,0.371-0.313,0.406-0.547
			l3.736-1.61c0.184-0.078,0.269-0.292,0.188-0.477C13.093,6.65,12.879,6.564,12.695,6.643z"/>
	</g>
</g>
<g>
</g>
<g>
</g>
<g>
</g>
<g>
</g>
<g>
</g>
<g>
</g>
<g>
</g>
<g>
</g>
<g>
</g>
<g>
</g>
<g>
</g>
<g>
</g>
<g>
</g>
<g>
</g>
<g>
</g>
</svg>
