<?xml version="1.0" encoding="iso-8859-1"?>
<!-- Generator: Adobe Illustrator 19.0.0, SVG Export Plug-In . SVG Version: 6.00 Build 0)  -->
<svg version="1.1" id="Layer_1" xmlns="http://www.w3.org/2000/svg" xmlns:xlink="http://www.w3.org/1999/xlink" x="0px" y="0px"
	 viewBox="0 0 457.995 457.995" style="enable-background:new 0 0 457.995 457.995;" xml:space="preserve">
<g>
	<g>
		<g>
			<path d="M159.456,273.946l31.567,0.196l-34.62-35.763l60.023,38.559c0.005,0.003,0.009,0.005,0.014,0.008
				c4.844,3.105,10.893,3.491,15.99,1.257l62.154-27.256c9.061-3.972,12.927-14.916,8.035-23.779
				c-4.193-7.621-13.603-10.875-21.679-7.335l-53.812,23.598l-54.355-34.918l53.506,17.485l48.114-21.099
				c16.825-7.378,36.477,0.28,43.862,17.12c7.352,16.766-0.224,36.454-17.12,43.862c-11.214,4.918-8.788,3.854-20.108,8.818
				c16.881,0.105,19.466,0.273,24.229-0.171c9.258-0.863,16.258-5.842,19.472-14.42l26.403-70.465
				c5.777,7.277,54.071,68.108,60.256,75.899c7.386,9.306,20.921,10.862,30.227,3.473c9.306-7.388,10.86-20.921,3.472-30.227
				l-83.905-105.689c-4.821-6.072-12.544-9.08-20.197-7.875c-7.66,1.207-14.078,6.442-16.799,13.703
				c-2.338,6.241-17.167,45.816-20.692,55.223c-0.607-0.022-142.98-5.298-143.588-5.298c-11.584,0-20.998,9.356-21.083,20.93
				l-0.316,42.925C138.417,264.353,147.804,273.874,159.456,273.946z"/>
			<path d="M79.911,272.603c22.085,0.137,39.977-17.695,40.113-39.619c0.136-21.915-17.523-39.976-39.619-40.113
				c-22.018-0.136-39.977,17.602-40.113,39.619C40.156,254.508,57.894,272.467,79.911,272.603z"/>
			<path d="M439.582,296.207H18.413C8.244,296.207,0,304.451,0,314.62s8.244,18.413,18.413,18.413h421.169
				c10.169,0,18.413-8.244,18.413-18.413S449.751,296.207,439.582,296.207z"/>
		</g>
	</g>
</g>
<g>
</g>
<g>
</g>
<g>
</g>
<g>
</g>
<g>
</g>
<g>
</g>
<g>
</g>
<g>
</g>
<g>
</g>
<g>
</g>
<g>
</g>
<g>
</g>
<g>
</g>
<g>
</g>
<g>
</g>
</svg>
