<?xml version="1.0" encoding="iso-8859-1"?>
<!-- Generator: Adobe Illustrator 18.1.1, SVG Export Plug-In . SVG Version: 6.00 Build 0)  -->
<svg version="1.1" id="Capa_1" xmlns="http://www.w3.org/2000/svg" xmlns:xlink="http://www.w3.org/1999/xlink" x="0px" y="0px"
	 viewBox="0 0 32.44 32.44" style="enable-background:new 0 0 32.44 32.44;" xml:space="preserve">
<g>
	<path d="M16.219,0C7.262,0,0,7.263,0,16.22s7.262,16.22,16.219,16.22c8.958,0,16.22-7.263,16.22-16.22S25.177,0,16.219,0z
		 M16.91,29.747v-2.418c0-0.38-0.309-0.689-0.688-0.689c-0.38,0-0.689,0.31-0.689,0.689v2.418
		c-6.938-0.348-12.49-5.899-12.839-12.838h2.31c0.379,0,0.688-0.31,0.688-0.689s-0.309-0.688-0.688-0.688h-2.31
		C3.041,8.591,8.596,3.038,15.538,2.692c0,0.01-0.007,0.02-0.007,0.031v2.521c0,0.38,0.309,0.688,0.689,0.688
		s0.688-0.309,0.688-0.688v-2.52c0-0.012-0.006-0.021-0.006-0.031c6.941,0.346,12.495,5.898,12.844,12.84h-2.328
		c-0.38,0-0.688,0.308-0.688,0.688s0.308,0.689,0.688,0.689h2.328C29.399,23.848,23.847,29.399,16.91,29.747z"/>
	<path d="M25.059,15.532H17.34c-0.236-0.382-0.638-0.65-1.121-0.65c-0.157,0-0.302,0.039-0.442,0.09L10.436,9.63
		c-0.268-0.27-0.704-0.27-0.973,0c-0.27,0.268-0.27,0.705,0,0.973l5.453,5.454c-0.007,0.057-0.033,0.105-0.033,0.163
		c0,0.738,0.599,1.338,1.337,1.338c0.481,0,0.884-0.268,1.121-0.648h7.718c0.38,0,0.688-0.31,0.688-0.689
		S25.438,15.532,25.059,15.532z"/>
	<g>
	</g>
	<g>
	</g>
	<g>
	</g>
	<g>
	</g>
	<g>
	</g>
	<g>
	</g>
	<g>
	</g>
	<g>
	</g>
	<g>
	</g>
	<g>
	</g>
	<g>
	</g>
	<g>
	</g>
	<g>
	</g>
	<g>
	</g>
	<g>
	</g>
</g>
<g>
</g>
<g>
</g>
<g>
</g>
<g>
</g>
<g>
</g>
<g>
</g>
<g>
</g>
<g>
</g>
<g>
</g>
<g>
</g>
<g>
</g>
<g>
</g>
<g>
</g>
<g>
</g>
<g>
</g>
</svg>
