<?xml version="1.0" encoding="iso-8859-1"?>
<!-- Generator: Adobe Illustrator 18.0.0, SVG Export Plug-In . SVG Version: 6.00 Build 0)  -->
<!DOCTYPE svg PUBLIC "-//W3C//DTD SVG 1.1//EN" "http://www.w3.org/Graphics/SVG/1.1/DTD/svg11.dtd">
<svg version="1.1" id="Capa_1" xmlns="http://www.w3.org/2000/svg" xmlns:xlink="http://www.w3.org/1999/xlink" x="0px" y="0px"
	 viewBox="0 0 285.92 285.92" style="enable-background:new 0 0 285.92 285.92;" xml:space="preserve">
<g>
	<path d="M142.96,0C64.132,0,0,64.132,0,142.96s64.132,142.96,142.96,142.96s142.959-64.132,142.959-142.96S221.789,0,142.96,0z
		 M142.96,260.92C77.917,260.92,25,208.003,25,142.96S77.917,25,142.96,25s117.959,52.917,117.959,117.96
		S208.003,260.92,142.96,260.92z"/>
	<path d="M109.259,127.34c-7.109,0-13.057,2.826-17.842,8.477c0.729-11.529,2.495-19.117,5.298-22.764
		c2.803-3.646,6.231-5.469,10.288-5.469c3.053,0,5.537,0.912,7.451,2.734c0.788,0.751,1.453,1.672,1.994,2.763
		c1.661,3.351,5.238,5.308,8.956,4.898l0.063-0.007c3.076-0.339,5.765-2.231,7.13-5.009s1.219-6.06-0.39-8.704
		c-1.421-2.336-3.134-4.361-5.141-6.074c-4.99-4.261-11.291-6.392-18.901-6.392c-10.847,0-19.665,4.057-26.455,12.168
		c-6.791,8.112-10.186,21.352-10.186,39.717c0,17.91,3.258,30.796,9.775,38.657c6.517,7.861,14.834,11.792,24.951,11.792
		c9.434,0,17.158-3.099,23.174-9.297c6.016-6.197,9.023-14.424,9.023-24.678c0-9.661-2.86-17.545-8.579-23.652
		C124.15,130.394,117.28,127.34,109.259,127.34z M116.095,174.029c-2.37,2.78-5.332,4.17-8.887,4.17
		c-3.691,0-6.973-1.697-9.844-5.093c-2.871-3.395-4.307-8.214-4.307-14.458c0-5.65,1.275-9.923,3.828-12.817
		c2.552-2.894,5.674-4.341,9.365-4.341c3.828,0,7.018,1.516,9.57,4.546c2.552,3.031,3.828,7.805,3.828,14.321
		C119.65,166.692,118.464,171.25,116.095,174.029z"/>
	<path d="M181.857,91.793c-9.707,0-17.272,3.418-22.695,10.254c-6.563,8.295-9.844,21.875-9.844,40.742
		c0,19.232,2.984,32.597,8.955,40.093c5.97,7.497,13.831,11.245,23.584,11.245c9.707,0,17.271-3.418,22.695-10.254
		c6.563-8.294,9.844-21.92,9.844-40.879c0-19.004-3.259-32.607-9.775-40.811C199.152,95.257,191.564,91.793,181.857,91.793z
		 M192.316,168.014c-1.003,3.828-2.416,6.483-4.238,7.964c-1.823,1.481-3.896,2.222-6.221,2.222s-4.387-0.729-6.187-2.188
		c-1.801-1.458-3.293-4.386-4.478-8.784c-1.186-4.397-1.777-12.476-1.777-24.233s0.66-20.12,1.982-25.088
		c1.002-3.828,2.415-6.482,4.238-7.964c1.822-1.48,3.896-2.222,6.221-2.222s4.386,0.741,6.187,2.222
		c1.8,1.481,3.292,4.421,4.478,8.818c1.185,4.398,1.777,12.476,1.777,24.233S193.637,163.092,192.316,168.014z"/>
</g>
<g>
</g>
<g>
</g>
<g>
</g>
<g>
</g>
<g>
</g>
<g>
</g>
<g>
</g>
<g>
</g>
<g>
</g>
<g>
</g>
<g>
</g>
<g>
</g>
<g>
</g>
<g>
</g>
<g>
</g>
</svg>
